# xmcd
#
# Track frame offsets: 
#        150
#        18665
#        35305
#        49322
#        69977
#        86620
#        98030
#        121512
#        138897
#        154932
#
# Disc length: 2392 seconds
#
# Revision: 5
# Processed by: cddbd v1.5.2PL0 Copyright (c) Steve Scherf et al.
# Submitted via: ExactAudioCopy v0.95b4
#
DISCID=7709560a
DTITLE=Chris LeDoux - Stampede
DYEAR=1996
DGENRE=Country
TTITLE0=Gravitational Pull
TTITLE1=Five Dollar Fine
TTITLE2=Now That's All Right With Me
TTITLE3=Take Me To The Rodeo
TTITLE4=Fathers And Sons
TTITLE5=I'll Get The Job Done
TTITLE6=Stampede
TTITLE7=When I Say Forever
TTITLE8=Calico Moon
TTITLE9=That's What Loving You Means To Me
EXTD=YEAR: 1996
EXTT0=
EXTT1=
EXTT2=
EXTT3=
EXTT4=
EXTT5=
EXTT6=
EXTT7=
EXTT8=
EXTT9=
PLAYORDER=
